<?xml version="1.0" encoding="UTF-8" standalone="no"?><!DOCTYPE svg PUBLIC "-//W3C//DTD SVG 1.1//EN" "http://www.w3.org/Graphics/SVG/1.1/DTD/svg11.dtd"><svg width="100%" height="100%" viewBox="0 0 468 94" version="1.1" xmlns="http://www.w3.org/2000/svg" xmlns:xlink="http://www.w3.org/1999/xlink" xml:space="preserve" xmlns:serif="http://www.serif.com/" style="fill-rule:evenodd;clip-rule:evenodd;stroke-linejoin:round;stroke-miterlimit:1.41421;"><g><g><path d="M268.581,0.98c-0.595,0.124 -1.389,0.323 -1.761,0.447c-0.657,0.223 -0.67,0.223 -1.29,-0.038c-0.459,-0.198 -0.868,-0.272 -1.538,-0.26c-0.496,0 -1.351,0.05 -1.897,0.099c-0.744,0.075 -1.215,0.199 -1.86,0.521c-0.794,0.384 -1.004,0.422 -2.356,0.496c-0.819,0.037 -1.65,0.149 -1.848,0.223c-0.211,0.087 -0.794,0.199 -1.302,0.273c-0.744,0.087 -1.203,0.074 -2.195,-0.099c-1.191,-0.199 -1.389,-0.199 -3.41,0c-1.191,0.124 -2.357,0.211 -2.605,0.211c-0.235,0 -0.855,0.111 -1.364,0.248c-0.558,0.148 -1.327,0.248 -1.947,0.248c-0.892,0 -1.116,0.049 -1.785,0.384c-0.596,0.298 -0.868,0.372 -1.265,0.323c-0.285,-0.038 -0.744,-0.137 -1.017,-0.224c-0.471,-0.136 -0.571,-0.124 -1.302,0.174c-0.744,0.322 -0.905,0.335 -2.406,0.31c-1.215,-0.025 -1.984,0.037 -3.1,0.236c-1.154,0.21 -1.674,0.248 -2.294,0.173c-0.447,-0.049 -1.265,-0.049 -1.836,0.013c-0.558,0.062 -1.426,0.248 -1.91,0.396c-0.706,0.236 -0.967,0.273 -1.264,0.162c-0.211,-0.062 -0.621,-0.149 -0.906,-0.174c-0.496,-0.062 -0.558,-0.025 -1.041,0.508c-0.323,0.348 -0.695,0.621 -0.968,0.695c-0.248,0.062 -0.93,0.124 -1.513,0.124c-0.954,0 -1.103,0.025 -1.327,0.273c-0.136,0.161 -0.409,0.459 -0.607,0.682c-0.273,0.31 -0.583,0.459 -1.451,0.707c-0.608,0.173 -1.228,0.397 -1.389,0.508c-0.149,0.099 -0.397,0.496 -0.546,0.893c-0.148,0.397 -0.545,1.24 -0.88,1.885c-0.372,0.719 -0.608,1.339 -0.608,1.587c0,0.236 0.112,0.633 0.248,0.906c0.137,0.26 0.36,0.793 0.496,1.165c0.162,0.409 0.434,0.831 0.682,1.054c0.236,0.199 0.62,0.41 0.856,0.447c0.273,0.062 0.756,-0.013 1.389,-0.186c0.546,-0.149 1.079,-0.323 1.19,-0.385c0.112,-0.062 0.36,-0.409 0.558,-0.756c0.273,-0.509 0.484,-0.732 0.955,-0.98c0.397,-0.198 0.67,-0.446 0.769,-0.682c0.087,-0.198 0.223,-0.546 0.31,-0.769c0.087,-0.235 0.273,-0.471 0.447,-0.533c0.173,-0.062 0.756,-0.099 1.314,-0.087c0.558,0.013 1.439,-0.049 1.947,-0.136c0.905,-0.161 0.943,-0.186 1.637,-0.918l0.707,-0.756l0.533,0.148c0.298,0.087 0.719,0.211 0.943,0.261c0.272,0.074 0.682,0.049 1.24,-0.062c0.595,-0.137 1.19,-0.161 2.071,-0.112c0.831,0.05 1.723,0.013 2.728,-0.111c0.843,-0.112 2.22,-0.186 3.162,-0.174c0.918,0.012 2.369,-0.037 3.224,-0.099c1.141,-0.099 1.675,-0.199 2.047,-0.385c0.272,-0.148 0.905,-0.384 1.413,-0.533c0.769,-0.235 1.067,-0.273 1.86,-0.198c0.521,0.049 2.344,0.111 4.043,0.124c1.712,0.012 3.274,-0.025 3.472,-0.075c0.211,-0.062 0.918,-0.186 1.575,-0.285c0.67,-0.099 2.084,-0.223 3.163,-0.26c1.389,-0.05 2.554,-0.013 4.03,0.124c1.699,0.173 2.331,0.173 3.534,0.062c0.806,-0.075 2.046,-0.099 2.766,-0.062c1.004,0.062 1.451,0.037 1.947,-0.112c0.347,-0.099 1.165,-0.248 1.798,-0.31c0.632,-0.062 1.488,-0.223 1.897,-0.372c0.409,-0.149 1.141,-0.298 1.612,-0.335c0.844,-0.062 0.881,-0.049 1.364,0.335c0.273,0.223 0.732,0.509 1.005,0.633c0.384,0.173 0.769,0.235 1.488,0.21c0.608,-0.012 1.315,0.062 1.86,0.199c0.707,0.173 0.967,0.198 1.377,0.087c0.285,-0.075 0.917,-0.434 1.413,-0.794c0.72,-0.509 0.968,-0.781 1.24,-1.327c0.186,-0.372 0.447,-0.918 0.559,-1.215c0.124,-0.298 0.372,-0.645 0.57,-0.782c0.198,-0.136 0.434,-0.409 0.533,-0.607c0.099,-0.199 0.186,-0.471 0.186,-0.608c0,-0.136 -0.124,-0.335 -0.273,-0.434c-0.161,-0.099 -0.88,-0.298 -1.612,-0.434c-0.719,-0.136 -1.438,-0.322 -1.575,-0.409c-0.148,-0.087 -0.434,-0.447 -0.632,-0.806c-0.31,-0.546 -0.447,-0.67 -0.893,-0.794c-0.409,-0.099 -0.955,-0.099 -2.282,0.012c-1.302,0.112 -1.91,0.112 -2.393,0.013c-0.36,-0.075 -1.054,-0.137 -1.55,-0.137c-0.496,0 -1.34,0.112 -1.873,0.248c-0.533,0.137 -1.314,0.249 -1.724,0.249c-0.421,0 -1.277,-0.112 -1.922,-0.249c-0.645,-0.136 -1.252,-0.235 -1.364,-0.235c-0.111,0.012 -0.682,0.111 -1.277,0.223Z" style="fill:#fff;fill-rule:nonzero;"/><path d="M405.724,17.077c-0.819,0.545 -1.141,0.843 -1.315,1.215c-0.136,0.273 -0.335,0.93 -0.446,1.463c-0.149,0.67 -0.199,1.327 -0.162,2.071c0.025,0.645 0.112,1.178 0.211,1.29c0.087,0.099 0.496,0.285 0.893,0.397c0.484,0.136 0.918,0.372 1.29,0.694c0.297,0.261 0.93,0.657 1.389,0.868c0.843,0.385 0.855,0.385 3.298,0.434c2.059,0.037 2.567,0.013 3.101,-0.161c0.359,-0.112 0.768,-0.31 0.917,-0.446c0.149,-0.137 0.298,-0.385 0.335,-0.546c0.05,-0.161 0,-0.508 -0.087,-0.769c-0.087,-0.26 -0.471,-0.843 -0.831,-1.302c-0.372,-0.459 -0.954,-1.054 -1.302,-1.314c-0.521,-0.397 -0.682,-0.621 -0.967,-1.327c-0.186,-0.472 -0.446,-1.03 -0.583,-1.253c-0.124,-0.223 -0.459,-0.508 -0.731,-0.645c-0.273,-0.149 -0.918,-0.372 -1.439,-0.521c-0.521,-0.136 -1.24,-0.384 -1.587,-0.558c-0.36,-0.161 -0.707,-0.297 -0.782,-0.297c-0.074,0 -0.62,0.322 -1.202,0.707Z" style="fill:#fff;fill-rule:nonzero;"/><path d="M23.177,29.825c-0.037,0.025 -0.979,0.136 -2.083,0.248c-1.116,0.111 -2.071,0.223 -2.12,0.248c-0.05,0.025 -0.67,0.111 -1.377,0.173c-0.707,0.075 -1.687,0.224 -2.183,0.335c-0.843,0.211 -0.917,0.211 -1.426,0c-0.297,-0.124 -0.744,-0.297 -1.004,-0.397c-0.36,-0.136 -0.595,-0.148 -1.054,-0.037c-0.323,0.075 -1.104,0.211 -1.736,0.298c-0.633,0.087 -1.253,0.236 -1.377,0.335c-0.124,0.087 -0.583,0.421 -1.017,0.744c-0.434,0.322 -0.917,0.682 -1.079,0.806c-0.148,0.124 -0.421,0.583 -0.607,1.029c-0.174,0.447 -0.348,1.067 -0.385,1.389c-0.037,0.36 0.037,0.943 0.161,1.451l0.224,0.843l-0.323,1.042c-0.186,0.57 -0.335,1.302 -0.335,1.612c0,0.496 -0.074,0.67 -0.62,1.327c-0.334,0.434 -0.644,0.967 -0.694,1.203c-0.037,0.223 -0.012,0.806 0.074,1.277c0.124,0.732 0.1,1.079 -0.111,2.456c-0.137,0.88 -0.347,2.145 -0.459,2.802c-0.186,1.017 -0.186,1.339 -0.062,2.096l0.149,0.893l-0.447,0.93c-0.31,0.657 -0.471,1.203 -0.545,1.934c-0.075,0.546 -0.261,1.786 -0.422,2.741c-0.174,0.955 -0.347,2.121 -0.397,2.604c-0.049,0.472 -0.186,1.278 -0.322,1.774l-0.223,0.892l0.285,0.782c0.161,0.421 0.335,1.079 0.384,1.451c0.05,0.384 0.025,1.017 -0.049,1.426c-0.087,0.446 -0.286,0.942 -0.496,1.24c-0.199,0.273 -0.422,0.719 -0.484,0.992c-0.075,0.273 -0.186,1.079 -0.261,1.798c-0.074,0.757 -0.26,1.662 -0.434,2.17c-0.297,0.806 -0.31,1.03 -0.31,3.2c0,2.282 0,2.344 0.286,2.629c0.223,0.223 0.496,0.31 1.141,0.372c0.471,0.049 1.041,0.173 1.264,0.26c0.31,0.124 0.484,0.137 0.658,0.037c0.186,-0.086 0.471,-0.074 1.079,0.062c0.657,0.149 0.942,0.162 1.364,0.05c0.409,-0.099 0.607,-0.248 0.831,-0.583c0.148,-0.248 0.533,-0.632 0.855,-0.868c0.31,-0.236 0.794,-0.781 1.054,-1.19c0.41,-0.658 0.608,-0.831 1.389,-1.253c0.608,-0.335 0.992,-0.632 1.153,-0.905c0.211,-0.372 0.224,-0.471 0.075,-1.253l-0.161,-0.855l0.521,-0.856c0.434,-0.719 0.508,-0.942 0.508,-1.525c0,-0.546 -0.074,-0.806 -0.372,-1.265c-0.223,-0.36 -0.484,-0.608 -0.682,-0.657c-0.186,-0.05 -0.633,-0.05 -1.017,-0.013c-0.372,0.037 -0.818,0.161 -0.98,0.273c-0.161,0.112 -0.471,0.422 -0.669,0.707c-0.211,0.285 -0.496,0.905 -0.633,1.389c-0.149,0.483 -0.322,0.955 -0.384,1.029c-0.075,0.087 -0.285,0.161 -0.471,0.161c-0.199,0 -0.521,-0.136 -0.72,-0.31c-0.198,-0.173 -0.459,-0.508 -0.57,-0.744c-0.174,-0.372 -0.186,-0.546 -0.075,-1.178c0.075,-0.409 0.211,-0.955 0.31,-1.228c0.087,-0.26 0.31,-0.707 0.484,-0.992c0.186,-0.285 0.571,-1.165 0.868,-1.972c0.298,-0.793 0.608,-1.76 0.682,-2.145c0.087,-0.384 0.161,-1.017 0.174,-1.426c0.012,-0.397 -0.087,-1.377 -0.211,-2.158c-0.174,-1.079 -0.211,-1.748 -0.149,-2.728c0.062,-1.166 0.05,-1.352 -0.173,-1.736c-0.137,-0.236 -0.422,-0.794 -0.633,-1.24c-0.223,-0.447 -0.421,-1.067 -0.446,-1.377c-0.05,-0.384 0,-0.694 0.136,-0.955c0.112,-0.21 0.397,-0.533 0.645,-0.719c0.236,-0.186 0.521,-0.496 0.62,-0.694c0.099,-0.199 0.521,-0.695 0.93,-1.092c0.521,-0.52 0.732,-0.818 0.732,-1.054c0,-0.198 -0.137,-0.459 -0.36,-0.657c-0.198,-0.186 -0.422,-0.459 -0.496,-0.608c-0.074,-0.148 -0.136,-0.607 -0.136,-1.016c0,-0.41 0.086,-0.968 0.198,-1.241c0.099,-0.26 0.409,-0.657 0.682,-0.868c0.261,-0.223 0.509,-0.521 0.558,-0.682c0.037,-0.186 -0.049,-0.521 -0.26,-0.93c-0.223,-0.409 -0.31,-0.731 -0.261,-0.93c0.038,-0.173 0.459,-0.583 1.005,-0.992c0.521,-0.397 1.079,-0.918 1.252,-1.166c0.174,-0.248 0.496,-0.769 0.707,-1.141c0.223,-0.372 0.496,-0.694 0.633,-0.719c0.148,-0.037 0.446,0.161 0.831,0.546c0.582,0.57 0.595,0.583 0.892,0.384c0.174,-0.111 0.831,-0.409 1.476,-0.669c0.955,-0.385 1.302,-0.472 2.021,-0.472c0.583,0 1.005,0.075 1.29,0.211c0.236,0.124 0.533,0.223 0.657,0.223c0.124,0 0.521,-0.148 0.881,-0.334c0.57,-0.298 0.794,-0.335 1.947,-0.348c0.868,-0.024 1.488,-0.099 1.848,-0.235c0.297,-0.112 0.868,-0.248 1.265,-0.31c0.471,-0.075 0.855,-0.075 1.078,0c0.186,0.062 0.397,0.211 0.472,0.335c0.074,0.111 0.235,0.545 0.347,0.942c0.124,0.397 0.409,1.005 0.645,1.339c0.235,0.348 0.421,0.695 0.421,0.782c0,0.086 -0.124,0.471 -0.26,0.855c-0.236,0.62 -0.261,0.769 -0.124,1.402c0.074,0.409 0.36,1.066 0.645,1.55c0.285,0.459 0.558,1.041 0.62,1.302c0.049,0.26 0.062,0.781 0.025,1.166c-0.062,0.595 -0.013,0.818 0.26,1.413c0.174,0.397 0.322,0.868 0.322,1.067c0,0.235 -0.099,0.421 -0.285,0.545c-0.161,0.1 -0.533,0.211 -0.843,0.248c-0.298,0.05 -1.612,0.025 -2.914,-0.037c-1.29,-0.049 -2.84,-0.062 -3.435,-0.012c-0.596,0.062 -1.24,0.173 -1.414,0.26c-0.186,0.087 -0.521,0.409 -0.757,0.719c-0.235,0.31 -0.657,0.707 -0.942,0.881c-0.273,0.186 -0.608,0.434 -0.719,0.558c-0.112,0.136 -0.261,0.484 -0.335,0.794c-0.074,0.31 -0.136,0.843 -0.136,1.19c0,0.459 0.074,0.732 0.26,0.967c0.136,0.174 0.372,0.385 0.521,0.472c0.149,0.074 0.607,0.21 1.017,0.297c0.409,0.087 1.389,0.161 2.182,0.174c1.228,0 1.563,0.049 2.27,0.31c0.458,0.174 0.992,0.31 1.203,0.31c0.198,0 0.545,-0.087 0.768,-0.198c0.224,-0.112 0.72,-0.509 1.104,-0.869c0.384,-0.372 0.843,-0.719 1.029,-0.793c0.174,-0.062 0.571,-0.124 0.881,-0.124c0.322,0 0.583,0.062 0.607,0.149c0.038,0.086 -0.074,0.83 -0.26,1.649c-0.174,0.818 -0.397,2.058 -0.496,2.765c-0.099,0.707 -0.248,1.426 -0.347,1.612c-0.099,0.186 -0.323,0.472 -0.496,0.633c-0.174,0.161 -0.372,0.471 -0.447,0.682c-0.062,0.211 -0.173,0.918 -0.248,1.562c-0.062,0.645 -0.124,1.613 -0.124,2.146c0,0.533 0.05,1.079 0.124,1.203c0.062,0.124 0.31,0.297 0.546,0.372c0.285,0.087 0.583,0.347 0.868,0.744c0.397,0.545 0.496,0.607 1.153,0.744c0.397,0.074 1.116,0.223 1.6,0.322c0.546,0.112 1.129,0.348 1.55,0.608c0.372,0.236 0.732,0.434 0.794,0.434c0.074,0 0.521,-0.546 0.992,-1.203l0.868,-1.215l-0.012,-0.93c-0.013,-0.682 -0.1,-1.154 -0.335,-1.786c-0.186,-0.459 -0.335,-1.091 -0.335,-1.377c0,-0.285 0.136,-0.892 0.298,-1.326c0.173,-0.447 0.434,-1.042 0.595,-1.352c0.235,-0.447 0.285,-0.732 0.273,-1.6c0,-0.88 -0.062,-1.166 -0.335,-1.736c-0.186,-0.372 -0.335,-0.856 -0.335,-1.079c0,-0.26 0.136,-0.558 0.434,-0.93c0.236,-0.298 0.546,-0.756 0.682,-1.042c0.136,-0.272 0.273,-0.806 0.322,-1.19c0.062,-0.533 0.013,-0.905 -0.198,-1.637c-0.273,-0.893 -0.273,-1.005 -0.124,-1.848c0.099,-0.496 0.161,-1.538 0.149,-2.319c-0.013,-0.781 -0.087,-1.6 -0.161,-1.823c-0.075,-0.223 -0.348,-0.57 -0.62,-0.793c-0.273,-0.211 -0.558,-0.509 -0.645,-0.645c-0.099,-0.186 -0.149,-1.017 -0.161,-2.592c0,-1.947 -0.038,-2.356 -0.224,-2.629c-0.111,-0.174 -0.322,-0.323 -0.459,-0.323c-0.136,0 -0.409,-0.086 -0.607,-0.186c-0.199,-0.111 -0.447,-0.359 -0.558,-0.558c-0.112,-0.21 -0.186,-0.682 -0.186,-1.116c0,-0.421 -0.062,-0.88 -0.137,-1.029c-0.086,-0.149 -0.359,-0.521 -0.62,-0.831c-0.248,-0.31 -0.682,-0.868 -0.955,-1.228c-0.272,-0.359 -0.793,-0.917 -1.153,-1.24c-0.372,-0.322 -0.781,-0.657 -0.918,-0.719c-0.136,-0.074 -0.905,-0.26 -1.698,-0.397c-0.794,-0.136 -2.121,-0.421 -2.964,-0.632c-0.844,-0.199 -1.736,-0.372 -1.984,-0.372c-0.236,0 -0.472,0.025 -0.497,0.062Z" style="fill:#fff;fill-rule:nonzero;"/><path d="M114.077,30.767c-0.186,0.038 -0.571,0.224 -0.868,0.397c-0.298,0.174 -0.98,0.484 -1.501,0.707c-0.583,0.236 -1.091,0.533 -1.277,0.769c-0.211,0.248 -0.31,0.521 -0.31,0.843c0,0.248 0.149,0.781 0.322,1.166l0.323,0.707l-0.323,0.607c-0.186,0.348 -0.322,0.819 -0.322,1.092c0,0.322 0.124,0.669 0.397,1.091c0.335,0.496 0.397,0.719 0.397,1.24c-0.013,0.347 -0.087,0.744 -0.162,0.893c-0.074,0.149 -0.198,0.719 -0.272,1.277c-0.062,0.558 -0.273,1.352 -0.447,1.774c-0.285,0.694 -0.31,0.843 -0.223,1.934c0.062,0.98 0.037,1.339 -0.174,2.108c-0.136,0.509 -0.31,1.513 -0.397,2.232c-0.074,0.72 -0.248,1.563 -0.372,1.885c-0.173,0.447 -0.21,0.769 -0.148,1.364c0.049,0.645 0.012,0.968 -0.273,1.836c-0.236,0.756 -0.347,1.426 -0.397,2.368c-0.05,0.844 -0.025,1.464 0.074,1.749c0.075,0.248 0.546,0.967 1.042,1.6c0.868,1.128 0.942,1.19 2.145,1.785c0.682,0.348 1.526,0.831 1.873,1.092c0.347,0.248 0.806,0.496 1.004,0.533c0.298,0.062 0.534,-0.012 0.98,-0.273c0.323,-0.186 0.93,-0.434 1.339,-0.545c0.596,-0.149 0.757,-0.249 0.831,-0.497c0.05,-0.173 0.124,-0.632 0.161,-1.016c0.05,-0.422 0.186,-0.868 0.348,-1.117c0.173,-0.235 0.483,-0.483 0.781,-0.595c0.285,-0.099 0.608,-0.273 0.732,-0.372c0.124,-0.099 0.322,-0.421 0.458,-0.694c0.124,-0.285 0.286,-1.079 0.36,-1.774c0.137,-1.128 0.124,-1.289 -0.05,-1.475c-0.136,-0.124 -0.483,-0.211 -1.004,-0.248c-0.769,-0.05 -0.806,-0.038 -1.314,0.421c-0.286,0.261 -0.745,0.794 -1.005,1.191c-0.273,0.397 -0.608,0.769 -0.744,0.843c-0.136,0.074 -0.397,0.124 -0.583,0.099c-0.273,-0.025 -0.347,-0.111 -0.372,-0.446c-0.025,-0.223 0.05,-0.856 0.161,-1.426c0.149,-0.695 0.41,-1.389 0.819,-2.17c0.446,-0.844 0.607,-1.29 0.607,-1.662c0,-0.323 -0.148,-0.806 -0.384,-1.302c-0.384,-0.782 -0.384,-0.806 -0.335,-2.369c0.037,-1.426 0.075,-1.637 0.385,-2.195c0.186,-0.335 0.334,-0.707 0.334,-0.806c0,-0.112 0.137,-0.732 0.31,-1.376c0.199,-0.769 0.31,-1.501 0.31,-2.158c0,-0.695 0.062,-1.129 0.224,-1.426c0.111,-0.236 0.347,-0.509 0.521,-0.596c0.21,-0.111 0.57,-0.136 1.14,-0.086c0.459,0.037 1.179,0.012 1.613,-0.062c0.434,-0.075 1.24,-0.372 1.81,-0.645l1.029,-0.509l1.079,0.174c0.596,0.099 1.439,0.174 1.885,0.174c0.769,0 0.856,-0.025 1.662,-0.608c0.583,-0.422 1.004,-0.62 1.364,-0.657c0.273,-0.038 0.794,-0.013 1.129,0.062c0.347,0.062 1.153,0.272 1.798,0.458c0.979,0.286 1.451,0.348 2.79,0.373c0.893,0.012 1.984,0.074 2.443,0.124c0.62,0.074 1.029,0.037 1.699,-0.124c0.843,-0.211 0.942,-0.211 2.021,0c0.62,0.124 1.377,0.359 1.674,0.508c0.298,0.161 0.682,0.298 0.831,0.298c0.161,0 0.571,-0.224 0.893,-0.496c0.335,-0.286 0.744,-0.534 0.905,-0.583c0.186,-0.05 0.72,0.062 1.34,0.26c0.632,0.211 1.079,0.422 1.153,0.571c0.062,0.124 0.124,0.756 0.124,1.388c0,0.633 -0.112,1.836 -0.236,2.679c-0.198,1.24 -0.31,1.625 -0.62,2.108c-0.198,0.323 -0.459,0.918 -0.583,1.327c-0.148,0.546 -0.21,1.414 -0.248,3.187c-0.037,2.381 -0.049,2.468 -0.384,3.1c-0.285,0.571 -0.347,0.869 -0.422,2.146c-0.049,0.818 -0.124,1.736 -0.173,2.046c-0.075,0.496 -0.037,0.632 0.297,1.129c0.211,0.31 0.744,0.83 1.178,1.153c0.546,0.397 0.856,0.731 0.98,1.041c0.099,0.249 0.223,0.695 0.273,0.98c0.05,0.298 0.186,0.657 0.31,0.806c0.186,0.236 0.347,0.285 0.843,0.273c0.372,0 0.757,-0.099 0.98,-0.248c0.211,-0.124 0.67,-0.471 1.029,-0.756c0.471,-0.397 0.918,-0.62 1.712,-0.856l1.078,-0.323l1.216,-1.252c0.669,-0.694 1.488,-1.674 1.823,-2.17c0.347,-0.509 0.62,-1.042 0.62,-1.191c0,-0.149 -0.186,-0.446 -0.397,-0.645c-0.223,-0.21 -0.769,-0.607 -1.203,-0.892c-0.434,-0.286 -0.905,-0.521 -1.066,-0.521c-0.149,0 -0.41,0.099 -0.571,0.235c-0.161,0.124 -0.471,0.323 -0.694,0.434c-0.224,0.112 -0.62,0.199 -0.906,0.199c-0.334,0 -0.582,-0.087 -0.744,-0.248c-0.136,-0.137 -0.248,-0.385 -0.248,-0.558c0,-0.161 0.174,-0.906 0.385,-1.637c0.211,-0.732 0.645,-1.836 0.955,-2.456c0.483,-0.942 0.582,-1.264 0.644,-2.083c0.062,-0.67 0.149,-1.066 0.335,-1.302c0.137,-0.186 0.509,-0.533 0.819,-0.769c0.335,-0.248 0.583,-0.533 0.583,-0.67c0,-0.124 -0.248,-0.508 -0.558,-0.843c-0.31,-0.335 -0.608,-0.818 -0.67,-1.066c-0.062,-0.261 -0.112,-2.009 -0.112,-3.919c0,-3.224 -0.012,-3.472 -0.235,-3.782c-0.137,-0.174 -0.534,-0.521 -0.893,-0.757c-0.347,-0.235 -0.806,-0.645 -1.017,-0.905c-0.211,-0.248 -0.546,-0.546 -0.757,-0.657c-0.248,-0.124 -1.016,-0.236 -2.368,-0.323c-1.104,-0.062 -2.542,-0.087 -3.187,-0.049c-0.645,0.037 -1.464,0.111 -1.823,0.148c-0.434,0.05 -0.843,0.013 -1.24,-0.124c-0.496,-0.161 -1.178,-0.186 -4.068,-0.148c-1.91,0.024 -4.067,-0.013 -4.787,-0.087c-1.116,-0.099 -1.45,-0.087 -2.133,0.074c-0.458,0.124 -1.227,0.211 -1.736,0.211c-0.508,0 -1.103,-0.062 -1.339,-0.149c-0.236,-0.074 -0.732,-0.335 -1.104,-0.558c-0.384,-0.223 -0.855,-0.409 -1.066,-0.409c-0.211,0 -1.005,0.198 -1.761,0.434c-1.377,0.434 -1.389,0.446 -3.46,0.409c-1.364,-0.012 -2.356,0.037 -2.865,0.137c-0.446,0.099 -1.116,0.136 -1.575,0.111c-0.446,-0.037 -0.942,-0.161 -1.116,-0.273c-0.173,-0.111 -0.508,-0.483 -0.744,-0.806c-0.248,-0.334 -0.558,-0.632 -0.719,-0.657c-0.149,-0.025 -0.422,-0.012 -0.595,0.037Z" style="fill:#fff;fill-rule:nonzero;"/><path d="M239.463,32.317c-0.372,0.174 -1.103,0.447 -1.612,0.62c-0.508,0.162 -1.277,0.521 -1.699,0.782c-0.545,0.347 -0.843,0.645 -1.029,1.004c-0.186,0.372 -0.236,0.633 -0.186,0.905c0.05,0.224 0.248,0.67 0.434,1.017c0.198,0.335 0.583,1.141 0.856,1.786c0.272,0.633 0.558,1.476 0.632,1.86c0.062,0.385 0.174,1.811 0.248,3.175c0.062,1.364 0.174,2.753 0.236,3.1c0.062,0.335 0.211,0.98 0.31,1.426c0.111,0.447 0.198,1.03 0.198,1.302c0,0.273 -0.149,0.943 -0.322,1.489c-0.273,0.855 -0.31,1.128 -0.248,1.984c0.049,0.545 0.161,1.376 0.26,1.847c0.124,0.596 0.335,1.092 0.67,1.6c0.31,0.447 0.521,0.93 0.558,1.24c0.037,0.285 0.087,1.352 0.124,2.369c0.062,1.835 0.062,1.872 0.508,2.765c0.248,0.496 0.571,0.968 0.72,1.054c0.148,0.075 0.607,0.186 1.016,0.236c0.41,0.05 1.03,0.037 1.365,-0.025c0.458,-0.074 0.706,-0.211 0.942,-0.483c0.174,-0.211 0.508,-0.435 0.732,-0.497c0.26,-0.074 0.62,-0.074 1.017,0.013c0.334,0.074 0.682,0.099 0.781,0.062c0.099,-0.037 0.235,-0.298 0.322,-0.595c0.075,-0.298 0.248,-0.918 0.385,-1.389c0.136,-0.472 0.285,-1.253 0.335,-1.724c0.074,-0.657 0.049,-0.992 -0.1,-1.401c-0.149,-0.41 -0.26,-0.546 -0.459,-0.546c-0.148,0 -0.409,-0.112 -0.582,-0.248c-0.174,-0.136 -0.459,-0.546 -0.633,-0.905c-0.322,-0.645 -0.322,-0.658 -0.124,-1.389c0.137,-0.533 0.186,-1.104 0.149,-1.984c-0.037,-0.893 -0.136,-1.476 -0.347,-2.071l-0.298,-0.819l0.273,-0.806c0.198,-0.545 0.26,-0.905 0.198,-1.153c-0.049,-0.199 -0.198,-0.608 -0.322,-0.918c-0.136,-0.31 -0.397,-1.339 -0.595,-2.294c-0.186,-0.955 -0.434,-2.468 -0.558,-3.348c-0.112,-0.893 -0.248,-1.848 -0.323,-2.133c-0.062,-0.285 -0.26,-0.905 -0.434,-1.364c-0.173,-0.459 -0.421,-1.315 -0.558,-1.898c-0.124,-0.583 -0.235,-1.252 -0.235,-1.488c0,-0.235 -0.062,-0.657 -0.137,-0.93c-0.087,-0.297 -0.36,-0.707 -0.67,-1.017c-0.322,-0.335 -0.632,-0.533 -0.818,-0.533c-0.161,0 -0.608,0.149 -0.98,0.322Z" style="fill:#fff;fill-rule:nonzero;"/><path d="M442.84,35.715c-0.447,0.124 -1.141,0.261 -1.55,0.31c-0.41,0.038 -0.881,0.137 -1.055,0.199c-0.173,0.062 -0.434,0.322 -0.595,0.558c-0.161,0.248 -0.471,0.508 -0.682,0.607c-0.223,0.087 -1.153,0.224 -2.071,0.31c-0.917,0.075 -1.848,0.186 -2.058,0.261c-0.199,0.062 -0.62,0.372 -0.93,0.682c-0.298,0.31 -0.794,0.732 -1.092,0.942c-0.372,0.273 -0.62,0.571 -0.831,1.042c-0.161,0.36 -0.421,0.744 -0.57,0.831c-0.161,0.099 -0.496,0.248 -0.769,0.335c-0.36,0.111 -0.57,0.297 -0.843,0.744c-0.273,0.434 -0.521,0.657 -0.992,0.88c-0.484,0.224 -0.682,0.397 -0.819,0.732c-0.111,0.285 -0.198,1.091 -0.248,2.443c-0.062,1.972 -0.062,2.021 0.261,2.666c0.235,0.471 0.694,0.992 1.674,1.898c0.905,0.843 1.637,1.388 2.257,1.711l0.905,0.459l3.671,-0.013c2.021,0 4.092,0.038 4.601,0.075c0.682,0.062 1.165,0.025 1.798,-0.112c0.57,-0.136 1.265,-0.198 2.021,-0.173l1.153,0.037l0.769,-0.831c0.422,-0.459 0.968,-0.918 1.203,-1.042c0.236,-0.111 0.62,-0.26 0.856,-0.31c0.285,-0.062 0.57,-0.037 0.831,0.075c0.31,0.124 0.434,0.285 0.533,0.644c0.074,0.261 0.136,1.575 0.136,2.939l0,2.456l0.571,0.57c0.322,0.31 0.657,0.744 0.744,0.968c0.099,0.223 0.173,0.582 0.173,0.793c0,0.211 -0.074,0.571 -0.173,0.806c-0.099,0.223 -0.31,0.496 -0.471,0.608c-0.149,0.099 -0.645,0.248 -1.092,0.31c-0.446,0.074 -1.203,0.248 -1.686,0.372c-0.484,0.136 -1.364,0.446 -1.96,0.682c-0.595,0.248 -1.314,0.608 -1.612,0.818c-0.409,0.298 -0.769,0.422 -1.599,0.559c-0.583,0.099 -1.228,0.26 -1.439,0.359c-0.211,0.112 -0.471,0.347 -0.595,0.521c-0.124,0.186 -0.372,0.484 -0.558,0.657c-0.186,0.174 -0.521,0.472 -0.757,0.658c-0.285,0.235 -0.508,0.582 -0.694,1.078c-0.149,0.41 -0.397,0.844 -0.558,0.968c-0.161,0.124 -0.471,0.322 -0.682,0.434c-0.223,0.124 -0.472,0.409 -0.571,0.645c-0.149,0.334 -0.186,1.041 -0.186,3.087c0,2.567 0.013,2.667 0.31,3.262c0.174,0.335 0.571,0.918 0.881,1.29c0.322,0.372 0.719,0.892 0.893,1.153c0.173,0.248 0.644,0.707 1.066,1.004c0.422,0.298 1.067,0.856 1.439,1.24c0.52,0.546 0.843,0.745 1.438,0.943c0.422,0.149 0.843,0.335 0.918,0.434c0.087,0.099 0.211,0.608 0.285,1.128c0.112,0.869 0.161,0.968 0.57,1.265c0.236,0.186 0.571,0.484 0.745,0.658c0.173,0.173 0.421,0.607 0.545,0.967c0.137,0.384 0.347,0.719 0.558,0.856c0.248,0.161 0.583,0.21 1.451,0.21c1.054,0 1.178,0.025 1.699,0.372c0.323,0.211 0.98,0.682 1.488,1.067c0.496,0.384 1.017,0.818 1.141,0.955c0.161,0.186 0.261,0.545 0.31,1.141l0.087,0.88l1.054,1.054c1.029,1.017 1.079,1.054 2.009,1.29c0.521,0.136 1.104,0.322 1.29,0.422c0.198,0.099 0.682,0.235 1.091,0.31c0.397,0.074 1.029,0.136 1.389,0.136c0.372,0 0.781,-0.05 0.905,-0.124c0.124,-0.062 0.347,-0.322 0.496,-0.57c0.248,-0.385 0.273,-0.559 0.211,-1.451c-0.025,-0.558 -0.012,-1.464 0.05,-2.022c0.062,-0.545 0.223,-1.327 0.359,-1.723c0.137,-0.397 0.248,-0.881 0.248,-1.079c0,-0.199 -0.111,-0.558 -0.235,-0.819c-0.137,-0.248 -0.422,-0.632 -0.658,-0.843c-0.223,-0.211 -0.62,-0.509 -0.868,-0.657c-0.297,-0.174 -0.508,-0.422 -0.607,-0.72c-0.1,-0.31 -0.112,-0.855 -0.05,-1.823c0.05,-0.756 0.099,-2.219 0.099,-3.236c0,-1.029 -0.012,-2.257 -0.037,-2.728c-0.025,-0.484 -0.025,-1.265 0,-1.737c0.025,-0.483 -0.037,-1.153 -0.124,-1.512c-0.136,-0.546 -0.136,-0.782 0,-1.551c0.099,-0.496 0.186,-1.389 0.186,-1.971c0,-0.93 -0.05,-1.166 -0.372,-1.836c-0.273,-0.595 -0.335,-0.818 -0.236,-0.979c0.075,-0.112 0.36,-0.286 0.62,-0.372c0.261,-0.1 0.67,-0.248 0.893,-0.348c0.298,-0.124 0.472,-0.334 0.695,-0.818c0.161,-0.36 0.397,-0.744 0.521,-0.868c0.124,-0.112 0.595,-0.298 1.041,-0.409c0.447,-0.112 1.178,-0.434 1.65,-0.707c0.459,-0.273 1.289,-0.633 1.847,-0.794c0.682,-0.186 1.092,-0.372 1.241,-0.57c0.186,-0.224 0.223,-0.447 0.198,-1.03c-0.025,-0.409 -0.161,-0.967 -0.285,-1.24c-0.186,-0.384 -0.36,-0.533 -0.744,-0.669c-0.397,-0.124 -0.744,-0.137 -1.674,-0.038c-0.918,0.087 -1.352,0.211 -1.923,0.509c-0.719,0.372 -0.793,0.372 -2.629,0.409c-1.674,0.025 -1.922,0.012 -2.108,-0.186c-0.186,-0.186 -0.235,-0.546 -0.31,-2.17c-0.037,-1.067 -0.124,-2.332 -0.173,-2.79c-0.075,-0.72 -0.038,-1.005 0.21,-1.786l0.286,-0.918l-0.211,-1.451c-0.112,-0.793 -0.211,-1.723 -0.211,-2.046c0,-0.546 0.05,-0.657 0.608,-1.24c0.359,-0.384 0.682,-0.88 0.806,-1.24c0.111,-0.323 0.198,-0.757 0.198,-0.955c0,-0.186 -0.037,-0.446 -0.074,-0.558c-0.05,-0.112 -0.348,-0.335 -0.682,-0.496c-0.335,-0.174 -0.67,-0.434 -0.757,-0.583c-0.087,-0.161 -0.186,-0.831 -0.223,-1.488c-0.05,-0.868 -0.124,-1.265 -0.26,-1.414c-0.112,-0.099 -0.422,-0.248 -0.683,-0.297c-0.26,-0.062 -1.041,-0.124 -1.723,-0.124c-0.943,0 -1.352,0.049 -1.674,0.223c-0.261,0.124 -0.546,0.421 -0.72,0.719c-0.148,0.285 -0.359,0.868 -0.459,1.302c-0.099,0.434 -0.21,1.116 -0.248,1.513c-0.062,0.509 -0.173,0.819 -0.396,1.091c-0.174,0.199 -0.608,0.521 -0.955,0.695c-0.347,0.174 -0.844,0.484 -1.104,0.682c-0.26,0.211 -0.732,0.471 -1.054,0.595c-0.484,0.174 -1.066,0.211 -3.497,0.223c-1.6,0.013 -3.968,0.087 -5.271,0.149c-1.289,0.075 -2.653,0.161 -3.013,0.199c-0.397,0.049 -0.806,0.012 -1.029,-0.075c-0.199,-0.087 -0.447,-0.273 -0.546,-0.421c-0.099,-0.137 -0.186,-0.41 -0.186,-0.608c0,-0.211 0.124,-0.459 0.298,-0.62c0.173,-0.161 0.607,-0.385 0.979,-0.496c0.372,-0.124 0.831,-0.335 1.005,-0.471c0.186,-0.149 0.583,-0.757 0.88,-1.364c0.41,-0.794 0.658,-1.154 0.918,-1.29c0.211,-0.099 0.57,-0.186 0.818,-0.186c0.236,0 0.769,0.087 1.166,0.198c0.434,0.124 0.893,0.174 1.153,0.124c0.249,-0.049 0.596,-0.26 0.844,-0.508c0.235,-0.236 0.483,-0.434 0.558,-0.434c0.074,0 0.297,0.161 0.483,0.359c0.199,0.199 0.496,0.422 0.682,0.496c0.174,0.062 0.819,0.248 1.414,0.397c0.757,0.186 1.29,0.248 1.699,0.199c0.335,-0.038 0.819,-0.186 1.091,-0.323c0.434,-0.223 0.571,-0.421 1.253,-1.798c0.484,-1.004 0.719,-1.624 0.67,-1.773c-0.038,-0.124 -0.224,-0.447 -0.41,-0.72c-0.173,-0.272 -0.421,-0.768 -0.545,-1.091c-0.124,-0.322 -0.348,-0.669 -0.484,-0.756c-0.186,-0.124 -0.893,-0.199 -2.195,-0.236c-1.153,-0.049 -2.195,-0.149 -2.604,-0.273c-0.372,-0.099 -0.819,-0.186 -0.992,-0.173c-0.174,0 -0.67,0.111 -1.116,0.235Zm9.288,30.308c0.248,0.273 0.273,0.385 0.211,1.092c-0.037,0.421 -0.112,1.389 -0.149,2.133c-0.05,0.843 -0.025,1.699 0.074,2.269c0.137,0.856 0.124,0.992 -0.136,1.773c-0.174,0.521 -0.236,0.955 -0.186,1.166c0.05,0.223 0.31,0.471 0.757,0.769c0.372,0.236 0.756,0.558 0.855,0.707c0.099,0.149 0.223,0.595 0.261,0.992c0.062,0.508 0.024,1.054 -0.137,1.835c-0.211,1.079 -0.211,1.153 0.013,2.443c0.124,0.732 0.248,1.637 0.272,2.009c0.025,0.409 -0.024,0.806 -0.111,0.992c-0.112,0.199 -0.298,0.323 -0.509,0.347c-0.186,0.025 -0.52,-0.074 -0.756,-0.223c-0.236,-0.136 -0.608,-0.533 -0.831,-0.88c-0.223,-0.347 -0.595,-0.757 -0.843,-0.918c-0.248,-0.149 -0.719,-0.384 -1.042,-0.496c-0.384,-0.149 -0.719,-0.397 -0.98,-0.707c-0.198,-0.26 -0.632,-0.607 -0.954,-0.769c-0.311,-0.161 -0.658,-0.397 -0.782,-0.521c-0.111,-0.136 -0.285,-0.458 -0.397,-0.731c-0.111,-0.273 -0.483,-0.744 -0.806,-1.054c-0.533,-0.484 -0.644,-0.682 -0.893,-1.55c-0.248,-0.844 -0.384,-1.079 -0.868,-1.551c-0.322,-0.31 -0.669,-0.731 -0.781,-0.954c-0.111,-0.211 -0.508,-0.658 -0.88,-0.98c-0.558,-0.496 -0.682,-0.657 -0.682,-0.992c0,-0.347 0.111,-0.496 0.818,-1.067c0.447,-0.359 1.017,-0.781 1.265,-0.93c0.248,-0.149 0.583,-0.409 0.769,-0.57c0.173,-0.174 0.397,-0.533 0.496,-0.819c0.087,-0.272 0.273,-0.607 0.397,-0.719c0.211,-0.186 0.459,-0.211 1.723,-0.186c0.918,0.025 1.65,-0.012 1.923,-0.099c0.384,-0.137 0.508,-0.273 0.806,-0.93c0.198,-0.434 0.483,-0.881 0.632,-0.98c0.149,-0.111 0.484,-0.198 0.719,-0.198c0.323,0 0.534,0.087 0.732,0.297Z" style="fill:#fff;fill-rule:nonzero;"/><path d="M341.747,35.839c-0.124,0.075 -0.285,0.385 -0.36,0.682c-0.074,0.31 -0.273,0.682 -0.422,0.831c-0.161,0.161 -0.57,0.385 -0.917,0.509c-0.509,0.173 -0.682,0.322 -0.955,0.781c-0.26,0.446 -0.484,0.632 -1.116,0.93c-0.583,0.273 -0.893,0.521 -1.191,0.93c-0.235,0.335 -0.706,0.744 -1.153,1.005c-0.409,0.248 -1.054,0.768 -1.426,1.165c-0.409,0.422 -0.831,0.744 -1.054,0.794c-0.199,0.05 -0.583,0.136 -0.856,0.211c-0.273,0.062 -0.719,0.347 -1.054,0.645c-0.31,0.297 -0.831,0.682 -1.141,0.855c-0.31,0.186 -0.868,0.434 -1.24,0.571c-0.372,0.124 -0.98,0.421 -1.352,0.657c-0.372,0.223 -0.83,0.484 -1.029,0.57c-0.186,0.075 -0.794,0.261 -1.352,0.397c-0.558,0.149 -1.388,0.459 -1.847,0.695c-0.459,0.235 -1.488,0.607 -2.295,0.806c-1.314,0.347 -1.736,0.397 -3.844,0.446c-1.538,0.05 -2.74,0.013 -3.41,-0.074c-0.571,-0.087 -1.277,-0.261 -1.563,-0.397c-0.446,-0.223 -0.582,-0.384 -0.979,-1.203c-0.248,-0.521 -0.447,-1.141 -0.459,-1.352c-0.013,-0.272 0.124,-0.595 0.384,-0.967c0.224,-0.31 0.397,-0.632 0.397,-0.719c0,-0.087 -0.521,-0.434 -1.153,-0.769l-1.141,-0.62l-2.121,0.012c-1.55,0.013 -2.306,0.075 -2.815,0.224c-0.471,0.136 -0.793,0.322 -1.017,0.595c-0.322,0.384 -0.334,0.409 -0.26,1.761c0.037,0.756 0.099,1.637 0.136,1.959c0.075,0.484 0.05,0.595 -0.148,0.695c-0.124,0.062 -0.955,0.186 -1.836,0.272c-0.93,0.087 -2.306,0.137 -3.224,0.087c-1.141,-0.037 -1.922,-0.012 -2.666,0.124c-0.719,0.124 -1.451,0.161 -2.294,0.112c-0.682,-0.037 -1.526,-0.161 -1.885,-0.261c-0.36,-0.111 -0.732,-0.31 -0.844,-0.471c-0.124,-0.173 -0.186,-0.558 -0.186,-1.153c0,-0.794 -0.074,-1.079 -0.756,-2.778c-0.744,-1.835 -0.757,-1.922 -0.682,-2.691c0.062,-0.533 0.012,-1.166 -0.112,-1.885c-0.111,-0.608 -0.31,-1.265 -0.434,-1.476c-0.136,-0.211 -0.384,-0.483 -0.583,-0.607c-0.272,-0.186 -0.595,-0.224 -1.661,-0.224c-1.228,0 -1.352,0.025 -1.637,0.286c-0.174,0.161 -0.422,0.62 -0.571,1.017c-0.149,0.396 -0.335,0.768 -0.421,0.843c-0.087,0.074 -0.434,0.235 -0.769,0.359c-0.533,0.199 -0.645,0.298 -0.781,0.72c-0.137,0.397 -0.137,0.855 -0.025,2.356c0.099,1.314 0.099,2.12 0.012,2.728c-0.074,0.471 -0.136,1.228 -0.136,1.674c0,0.521 0.062,0.906 0.186,1.079c0.099,0.149 0.459,0.36 0.793,0.471c0.335,0.112 0.695,0.298 0.806,0.422c0.124,0.136 0.31,0.769 0.447,1.525c0.124,0.72 0.298,1.426 0.397,1.575c0.087,0.149 0.335,0.385 0.558,0.521c0.223,0.137 0.62,0.521 0.905,0.856c0.397,0.471 0.707,0.682 1.463,1.004c0.819,0.347 1.092,0.409 1.947,0.397c0.546,0 1.526,-0.099 2.17,-0.211c0.931,-0.173 1.923,-0.223 4.7,-0.223c2.555,0 3.671,-0.05 4.068,-0.161c0.298,-0.087 0.781,-0.36 1.066,-0.595c0.286,-0.236 0.707,-0.521 0.931,-0.633c0.223,-0.124 0.83,-0.297 1.351,-0.397c0.509,-0.099 1.302,-0.173 1.749,-0.173c0.521,0 1.017,0.086 1.314,0.223c0.286,0.124 0.682,0.484 0.992,0.893c0.286,0.372 0.707,0.781 0.943,0.893c0.235,0.111 0.942,0.272 1.55,0.347c0.62,0.074 1.426,0.248 1.811,0.384c0.644,0.236 0.731,0.236 1.066,0.062c0.198,-0.099 0.446,-0.273 0.533,-0.384c0.087,-0.112 0.323,-0.285 0.509,-0.385c0.198,-0.099 0.459,-0.173 0.583,-0.173c0.136,0 0.607,0.173 1.054,0.384l0.818,0.372l0.893,-0.397l0.905,-0.384l1.674,0.149c1.29,0.124 1.811,0.124 2.208,0.012c0.335,-0.087 0.62,-0.285 0.806,-0.521c0.161,-0.21 0.459,-0.545 0.657,-0.756c0.211,-0.198 0.806,-0.645 1.339,-0.992c0.534,-0.347 1.228,-0.707 1.551,-0.806c0.322,-0.099 1.227,-0.223 2.008,-0.273c0.782,-0.05 1.551,-0.161 1.712,-0.236c0.149,-0.086 0.409,-0.434 0.583,-0.769c0.173,-0.334 0.434,-0.694 0.595,-0.806c0.161,-0.099 0.446,-0.235 0.645,-0.297c0.211,-0.062 0.793,-0.211 1.314,-0.323c0.806,-0.161 1.042,-0.285 1.662,-0.806c0.409,-0.347 1.042,-0.731 1.426,-0.88c0.372,-0.137 0.757,-0.31 0.843,-0.397c0.087,-0.074 0.273,-0.347 0.41,-0.608c0.173,-0.334 0.421,-0.558 0.855,-0.781c0.348,-0.174 0.695,-0.459 0.794,-0.657c0.087,-0.186 0.211,-0.633 0.26,-1.005c0.062,-0.458 0.186,-0.768 0.385,-0.967c0.161,-0.149 0.421,-0.285 0.595,-0.285c0.174,0 0.484,0.149 0.695,0.335c0.347,0.322 0.396,0.446 0.545,1.723c0.099,0.807 0.273,1.563 0.409,1.861c0.137,0.26 0.397,0.93 0.583,1.475c0.174,0.546 0.509,1.302 0.732,1.674c0.248,0.41 0.694,0.906 1.141,1.241c0.397,0.31 1.079,0.905 1.513,1.326c0.508,0.509 0.955,0.819 1.277,0.918c0.446,0.137 0.732,0.112 2.393,-0.235l1.885,-0.385l2.233,0.136c1.227,0.087 2.567,0.149 2.988,0.149c0.521,0 0.868,-0.062 1.091,-0.223c0.199,-0.124 0.484,-0.521 0.645,-0.88c0.248,-0.571 0.348,-0.682 0.757,-0.794c0.26,-0.074 1.041,-0.136 1.748,-0.136c0.856,0 1.389,-0.062 1.612,-0.174c0.186,-0.099 0.472,-0.409 0.633,-0.695c0.186,-0.334 0.446,-0.582 0.707,-0.694c0.372,-0.161 0.471,-0.149 0.806,0.012c0.198,0.112 0.483,0.372 0.607,0.596c0.137,0.223 0.534,0.979 0.881,1.699c0.36,0.719 0.843,1.513 1.091,1.773c0.248,0.26 0.806,0.67 1.253,0.893c0.446,0.223 1.029,0.471 1.302,0.558c0.273,0.087 0.831,0.322 1.24,0.533l0.732,0.372l0.818,-0.273c0.446,-0.136 1.389,-0.31 2.108,-0.384c0.719,-0.075 1.873,-0.186 2.567,-0.248c0.695,-0.075 1.538,-0.211 1.873,-0.31c0.372,-0.112 0.868,-0.409 1.302,-0.794c0.372,-0.335 0.942,-0.707 1.265,-0.818c0.459,-0.174 0.744,-0.199 1.525,-0.124c0.521,0.049 1.463,0.124 2.071,0.161c0.868,0.074 1.315,0.037 2.046,-0.137c0.509,-0.124 1.054,-0.297 1.216,-0.384c0.161,-0.087 0.669,-0.459 1.14,-0.831c0.459,-0.372 0.98,-0.88 1.166,-1.141c0.186,-0.26 0.471,-0.545 0.633,-0.657c0.148,-0.099 0.892,-0.298 1.624,-0.434c0.806,-0.161 1.6,-0.397 1.959,-0.583c0.335,-0.186 0.72,-0.483 0.869,-0.682c0.136,-0.198 0.434,-0.459 0.644,-0.595c0.211,-0.124 0.596,-0.236 0.844,-0.236c0.272,0 0.533,0.087 0.682,0.236c0.136,0.136 0.335,0.546 0.446,0.905c0.099,0.372 0.36,0.819 0.583,1.054c0.211,0.223 0.533,0.67 0.707,0.992c0.31,0.571 0.359,0.608 1.066,0.757c0.41,0.087 1.141,0.359 1.625,0.607c0.682,0.348 0.955,0.422 1.24,0.36c0.198,-0.05 0.806,-0.26 1.352,-0.471c0.843,-0.323 1.227,-0.385 2.666,-0.459c1.389,-0.074 1.773,-0.149 2.232,-0.384c0.31,-0.149 0.757,-0.435 0.992,-0.621c0.236,-0.186 0.533,-0.372 0.657,-0.409c0.124,-0.049 0.36,-0.049 0.521,-0.012c0.174,0.049 0.434,0.297 0.62,0.607c0.224,0.397 0.509,0.645 1.03,0.931c0.496,0.26 0.793,0.52 0.992,0.868c0.148,0.272 0.434,0.57 0.62,0.657c0.186,0.099 0.806,0.273 1.389,0.397c0.582,0.124 1.475,0.235 1.984,0.235c0.62,0 1.128,-0.062 1.513,-0.21c0.409,-0.162 0.843,-0.509 1.5,-1.203c0.682,-0.707 0.992,-1.141 1.166,-1.613c0.136,-0.396 0.434,-0.868 0.756,-1.19c0.434,-0.446 0.521,-0.608 0.521,-1.029c0,-0.348 -0.087,-0.596 -0.297,-0.844c-0.298,-0.347 -0.31,-0.347 -2.208,-0.409c-1.041,-0.037 -1.996,-0.124 -2.12,-0.173c-0.124,-0.062 -0.335,-0.323 -0.472,-0.596c-0.136,-0.26 -0.508,-0.781 -0.83,-1.141c-0.323,-0.372 -0.769,-0.892 -0.993,-1.178c-0.285,-0.347 -0.595,-0.57 -1.041,-0.719c-0.347,-0.124 -0.881,-0.446 -1.178,-0.707c-0.484,-0.421 -0.658,-0.496 -1.265,-0.545c-0.657,-0.05 -0.732,-0.025 -1.253,0.409c-0.297,0.248 -0.793,0.583 -1.103,0.732c-0.31,0.161 -0.868,0.384 -1.228,0.508c-0.372,0.112 -0.843,0.372 -1.054,0.558c-0.223,0.186 -0.62,0.459 -0.893,0.595c-0.273,0.137 -0.831,0.31 -1.24,0.385c-0.397,0.074 -1.029,0.136 -1.389,0.136c-0.372,0 -0.856,-0.074 -1.091,-0.174c-0.224,-0.099 -0.484,-0.297 -0.558,-0.446c-0.112,-0.198 -0.124,-0.67 -0.062,-1.612c0.074,-1.067 0.049,-1.463 -0.124,-2.083c-0.124,-0.422 -0.348,-0.869 -0.521,-1.042c-0.236,-0.223 -0.472,-0.285 -1.129,-0.323c-0.545,-0.037 -1.178,0.038 -1.848,0.199c-0.756,0.186 -1.14,0.223 -1.488,0.136c-0.26,-0.062 -0.768,-0.111 -1.116,-0.111c-0.496,0 -0.719,0.062 -0.905,0.248c-0.124,0.124 -0.347,0.458 -0.484,0.719c-0.136,0.26 -0.446,0.608 -0.694,0.781c-0.248,0.161 -0.645,0.595 -0.881,0.955c-0.235,0.36 -0.595,0.757 -0.806,0.868c-0.21,0.112 -0.781,0.447 -1.265,0.744c-0.496,0.285 -1.388,0.682 -2.008,0.881c-0.608,0.198 -1.414,0.421 -1.774,0.508c-0.446,0.099 -0.843,0.31 -1.203,0.62c-0.31,0.261 -0.645,0.509 -0.769,0.533c-0.124,0.038 -0.533,0.137 -0.905,0.211c-0.372,0.087 -0.905,0.273 -1.178,0.409c-0.471,0.236 -0.57,0.236 -1.811,0.087c-0.731,-0.087 -1.612,-0.111 -1.984,-0.062c-0.372,0.05 -1.227,0.31 -1.909,0.583c-1.154,0.459 -1.365,0.509 -2.977,0.608c-0.955,0.049 -1.86,0.136 -2.009,0.186c-0.161,0.037 -0.471,0.037 -0.719,0c-0.335,-0.062 -0.608,-0.285 -1.24,-1.017c-0.744,-0.856 -0.806,-0.967 -0.806,-1.513c0,-0.335 0.087,-0.707 0.186,-0.868c0.112,-0.149 0.595,-0.496 1.091,-0.781c0.496,-0.286 0.992,-0.608 1.116,-0.707c0.162,-0.137 0.211,-0.372 0.211,-0.943c0,-0.607 -0.087,-0.93 -0.421,-1.624c-0.224,-0.484 -0.534,-0.98 -0.683,-1.104c-0.173,-0.161 -0.508,-0.26 -0.992,-0.298c-0.558,-0.037 -0.88,0.013 -1.513,0.273c-0.582,0.223 -1.041,0.323 -1.612,0.323c-0.57,0 -0.967,0.086 -1.413,0.297c-0.335,0.149 -0.806,0.496 -1.03,0.769c-0.223,0.261 -0.595,0.732 -0.806,1.042c-0.223,0.297 -0.657,0.732 -0.955,0.955c-0.31,0.223 -0.719,0.533 -0.93,0.694c-0.198,0.161 -0.533,0.385 -0.744,0.484c-0.198,0.099 -0.756,0.285 -1.24,0.397c-0.471,0.111 -1.277,0.26 -1.786,0.322c-0.57,0.074 -1.376,0.323 -2.071,0.62c-0.868,0.372 -1.438,0.521 -2.306,0.62c-0.633,0.075 -1.463,0.211 -1.835,0.31c-0.621,0.161 -0.794,0.161 -1.836,-0.062c-0.992,-0.198 -1.252,-0.31 -1.922,-0.806c-0.422,-0.322 -0.868,-0.756 -0.98,-0.967c-0.111,-0.223 -0.235,-0.757 -0.285,-1.203c-0.037,-0.446 -0.099,-1.017 -0.136,-1.265c-0.05,-0.347 -0.236,-0.632 -0.682,-1.079c-0.335,-0.347 -0.608,-0.731 -0.608,-0.868c0,-0.149 0.236,-0.521 0.533,-0.843c0.471,-0.509 0.521,-0.62 0.509,-1.166c-0.013,-0.397 -0.149,-0.831 -0.422,-1.327c-0.211,-0.409 -0.508,-0.868 -0.632,-1.004c-0.137,-0.137 -0.41,-0.347 -0.62,-0.459c-0.298,-0.149 -0.695,-0.186 -1.712,-0.161c-0.719,0.012 -1.699,-0.013 -2.182,-0.062c-0.558,-0.05 -0.943,-0.037 -1.079,0.049Z" style="fill:#fff;fill-rule:nonzero;"/><path d="M180.608,52.581c-0.149,0.062 -0.384,0.26 -0.533,0.446c-0.136,0.174 -0.261,0.397 -0.261,0.484c0,0.087 -0.099,0.285 -0.235,0.446c-0.161,0.211 -0.447,0.31 -1.079,0.422c-0.707,0.111 -0.88,0.186 -1.017,0.446c-0.124,0.211 -0.149,0.645 -0.099,1.6c0.05,0.719 0.124,1.5 0.198,1.724c0.062,0.235 0.211,0.521 0.323,0.657c0.124,0.124 0.533,0.322 0.905,0.434c0.384,0.099 0.843,0.298 1.017,0.422c0.186,0.124 0.484,0.285 0.682,0.359c0.198,0.075 0.533,0.112 0.756,0.062c0.273,-0.049 0.459,-0.186 0.583,-0.409c0.087,-0.186 0.236,-0.694 0.31,-1.141c0.087,-0.446 0.236,-0.93 0.335,-1.091c0.124,-0.199 0.298,-0.273 0.608,-0.273c0.31,0 0.57,0.124 0.992,0.496c0.31,0.273 0.682,0.496 0.818,0.496c0.137,0 0.372,-0.124 0.534,-0.285c0.161,-0.161 0.359,-0.62 0.483,-1.079c0.099,-0.446 0.285,-1.339 0.397,-1.997c0.174,-1.004 0.186,-1.24 0.037,-1.463c-0.087,-0.136 -0.347,-0.347 -0.57,-0.459c-0.223,-0.099 -0.781,-0.211 -1.24,-0.235c-0.459,-0.038 -1.476,-0.087 -2.257,-0.112c-0.782,-0.025 -1.55,0 -1.687,0.05Z" style="fill:#fff;fill-rule:nonzero;"/><path d="M67.957,53.945c-0.099,0.062 -0.285,0.459 -0.434,0.893c-0.21,0.657 -0.322,0.818 -0.682,1.017c-0.347,0.186 -0.57,0.21 -1.029,0.148c-0.397,-0.062 -0.856,-0.272 -1.364,-0.62c-0.422,-0.285 -0.955,-0.595 -1.19,-0.669c-0.236,-0.087 -0.732,-0.149 -1.117,-0.149c-0.384,0 -1.016,0.049 -1.426,0.124c-0.583,0.099 -0.831,0.211 -1.302,0.632c-0.31,0.286 -0.88,0.682 -1.252,0.906c-0.459,0.26 -0.769,0.545 -0.955,0.88c-0.149,0.273 -0.335,0.831 -0.422,1.24c-0.087,0.422 -0.111,0.905 -0.074,1.079c0.049,0.186 0.223,0.496 0.397,0.694c0.173,0.199 0.744,0.608 1.265,0.893c0.533,0.286 1.19,0.645 1.463,0.806c0.335,0.199 0.93,0.36 1.81,0.484c0.732,0.112 1.675,0.198 2.109,0.186c0.434,0 0.992,-0.062 1.227,-0.149c0.261,-0.087 0.533,-0.322 0.707,-0.583c0.149,-0.235 0.372,-0.558 0.496,-0.719c0.186,-0.235 0.397,-0.297 1.377,-0.384c1.017,-0.087 1.203,-0.149 1.513,-0.447c0.198,-0.198 0.421,-0.521 0.483,-0.731c0.075,-0.211 0.186,-0.819 0.248,-1.352c0.062,-0.533 0.199,-1.091 0.31,-1.253c0.124,-0.198 0.484,-0.396 1.092,-0.595c0.855,-0.273 0.905,-0.31 0.942,-0.682c0.025,-0.298 -0.025,-0.434 -0.248,-0.583c-0.161,-0.099 -0.67,-0.223 -1.128,-0.273c-0.571,-0.062 -1.141,-0.223 -1.724,-0.496c-0.471,-0.235 -0.868,-0.421 -0.881,-0.421c-0.012,0 -0.111,0.049 -0.211,0.124Z" style="fill:#fff;fill-rule:nonzero;"/></g></g></svg>