<?xml version="1.0" encoding="UTF-8" standalone="no"?><!DOCTYPE svg PUBLIC "-//W3C//DTD SVG 1.1//EN" "http://www.w3.org/Graphics/SVG/1.1/DTD/svg11.dtd"><svg width="100%" height="100%" viewBox="0 0 513 513" version="1.1" xmlns="http://www.w3.org/2000/svg" xmlns:xlink="http://www.w3.org/1999/xlink" xml:space="preserve" xmlns:serif="http://www.serif.com/" style="fill-rule:evenodd;clip-rule:evenodd;stroke-linejoin:round;stroke-miterlimit:1.41421;"><path d="M256.013,0.014l-42.667,0c-88.324,0.1 -159.9,71.676 -160,160l0,17.931l-52.01,94.25c-0.866,1.579 -1.321,3.351 -1.323,5.152c-0.018,0.606 -0.018,1.213 0,1.819c0.502,17.171 14.829,30.684 32,30.181c7.758,0.431 15.2,3.218 21.333,7.989l0,34.677c-0.024,0.815 -0.024,1.631 0,2.447c0.676,22.888 19.778,40.896 42.667,40.22l64,0c0.606,0.018 1.213,0.018 1.819,0c17.171,-0.502 30.684,-14.829 30.181,-32l0,-64l-21.333,0l0,64c0.062,0.634 0.062,1.273 0,1.907c-0.527,5.365 -5.302,9.286 -10.667,8.76l-64,0c-0.851,0.054 -1.705,0.054 -2.556,0c-11.076,-0.706 -19.483,-10.257 -18.777,-21.333l0,-39.765c0.001,-3.055 -1.308,-5.964 -3.595,-7.989c-10.698,-9.857 -24.539,-15.612 -39.072,-16.245c-0.047,0.006 -0.095,0.011 -0.142,0.016c-5.143,0.545 -9.755,-3.182 -10.301,-8.326l51.787,-93.867c0.866,-1.579 1.321,-3.351 1.323,-5.152l0,-20.672c0.088,-76.547 62.12,-138.579 138.667,-138.667l42.539,0c0.649,-0.069 1.304,-0.073 1.954,-0.012c5.39,0.507 9.348,5.288 8.841,10.678l0,53.333l21.333,0l0,-53.332c0.018,-0.606 0.018,-1.213 0,-1.819c-0.503,-17.171 -14.83,-30.684 -32.001,-30.181Z" style="fill:#0100ff;fill-rule:nonzero;"/><path d="M437.347,320.014l-117.334,0l0,21.333l117.333,0c0.634,-0.062 1.273,-0.062 1.907,0c5.365,0.527 9.287,5.302 8.76,10.667l0,20.16c-1.536,6.368 -11.819,43.84 -42.667,43.84c-5.891,0 -10.667,4.776 -10.667,10.667l0,64l-202.666,0l0,-32l-21.333,0l0,42.667c0,5.891 4.776,10.667 10.667,10.667l224,0c5.891,0 10.667,-4.776 10.667,-10.667l0,-64.939c33.344,-6.304 49.237,-41.483 53.12,-60.928c0.143,-0.702 0.214,-1.417 0.213,-2.133l0,-21.333c0.018,-0.606 0.018,-1.213 0,-1.819c-0.502,-17.172 -14.829,-30.685 -32,-30.182Z" style="fill:#0100ff;fill-rule:nonzero;"/><path d="M501.347,128.014l-26.891,0c-1.129,-3.169 -2.421,-6.277 -3.872,-9.312l19.029,-19.029c4.164,-4.165 4.164,-10.917 0,-15.083l-30.176,-30.176c-4.165,-4.164 -10.917,-4.164 -15.083,0l-19.029,19.029c-3.036,-1.445 -6.144,-2.733 -9.312,-3.861l0,-26.902c0,-5.891 -4.776,-10.667 -10.667,-10.667l-42.666,0c-5.891,0 -10.667,4.776 -10.667,10.667l0,26.901c-5.808,2.051 -11.402,4.662 -16.704,7.797l10.837,18.368c5.998,-3.531 12.461,-6.206 19.2,-7.947c4.709,-1.216 7.999,-5.462 8,-10.325l0,-24.127l21.333,0l0,24.128c-0.006,4.861 3.275,9.111 7.979,10.336c6.739,1.741 13.202,4.416 19.2,7.947c4.192,2.477 9.529,1.801 12.971,-1.643l17.067,-17.067l15.093,15.061l-17.067,17.067c-3.447,3.439 -4.127,8.777 -1.653,12.971c3.538,5.997 6.22,12.46 7.968,19.2c1.215,4.705 5.456,7.994 10.315,8l24.128,0l0,21.323l-24.107,0c-4.859,0.006 -9.1,3.295 -10.315,8c-1.748,6.74 -4.43,13.203 -7.968,19.2c-2.474,4.194 -1.794,9.531 1.653,12.971l17.067,17.067l-15.083,15.083l-17.067,-17.067c-3.442,-3.444 -8.779,-4.12 -12.971,-1.643c-5.998,3.531 -12.461,6.206 -19.2,7.947c-4.709,1.216 -7.999,5.462 -8,10.325l0,24.128l-21.333,0l0,-24.117c-0.001,-4.863 -3.291,-9.11 -8,-10.325c-6.739,-1.741 -13.202,-4.416 -19.2,-7.947c-4.192,-2.477 -9.529,-1.801 -12.971,1.643l-17.065,17.065l-15.083,-15.083l17.067,-17.067c3.447,-3.439 4.128,-8.777 1.653,-12.971c-3.538,-5.997 -6.22,-12.46 -7.968,-19.2c-1.215,-4.705 -5.456,-7.994 -10.315,-8l-34.794,0l0,21.333l26.901,0c1.125,3.169 2.414,6.277 3.861,9.312l-19.029,19.029c-4.164,4.165 -4.164,10.917 0,15.083l30.176,30.176c4.165,4.164 10.917,4.164 15.083,0l19.029,-19.029c3.036,1.445 6.144,2.733 9.312,3.861l0,26.901c0,5.891 4.776,10.667 10.667,10.667l42.667,0c5.891,0 10.667,-4.776 10.667,-10.667l0,-26.891c3.168,-1.128 6.276,-2.417 9.312,-3.861l19.029,19.019c4.165,4.164 10.917,4.164 15.083,0l30.176,-30.176c4.164,-4.165 4.164,-10.917 0,-15.083l-19.04,-19.029c1.451,-3.035 2.743,-6.143 3.872,-9.312l26.901,0c5.891,0 10.667,-4.776 10.667,-10.667l0,-42.665c-0.001,-5.891 -4.776,-10.666 -10.667,-10.666Z" style="fill:#0100ff;fill-rule:nonzero;"/><path d="M384.013,117.347c-23.564,0 -42.667,19.103 -42.667,42.667c0,23.564 19.102,42.667 42.667,42.667c23.564,0 42.667,-19.103 42.667,-42.667c0,-23.564 -19.102,-42.667 -42.667,-42.667Zm0,64c-11.782,0 -21.333,-9.551 -21.333,-21.333c0,-11.782 9.551,-21.333 21.333,-21.333c11.782,0 21.333,9.551 21.333,21.333c0.001,11.782 -9.55,21.333 -21.333,21.333Z" style="fill:#0100ff;fill-rule:nonzero;"/><path d="M160.013,170.68l0,10.667l-32,0l0,-10.667l-21.333,0l0,10.667c-0.006,0.295 -0.006,0.589 0,0.884c0.244,11.538 9.795,20.693 21.333,20.449l32,0c0.295,0.006 0.589,0.006 0.884,0c11.538,-0.244 20.693,-9.795 20.449,-21.333l0,-10.667l-21.333,0Z" style="fill:#0100ff;fill-rule:nonzero;"/><path d="M298.68,298.68c-17.673,0 -32,14.327 -32,32c0,17.673 14.327,32 32,32c17.673,0 32,-14.327 32,-32c0,-17.673 -14.327,-32 -32,-32Zm0,42.667c-5.891,0 -10.667,-4.776 -10.667,-10.667c0,-5.891 4.776,-10.667 10.667,-10.667c5.891,0 10.667,4.776 10.667,10.667c0,5.891 -4.776,10.667 -10.667,10.667Z" style="fill:#0100ff;fill-rule:nonzero;"/><path d="M181.347,245.347c-17.673,0 -32,14.327 -32,32c0,17.673 14.327,32 32,32c17.673,0 32,-14.327 32,-32c0,-17.673 -14.327,-32 -32,-32Zm0,42.667c-5.891,0 -10.667,-4.776 -10.667,-10.667c0,-5.891 4.776,-10.667 10.667,-10.667c5.891,0 10.667,4.776 10.667,10.667c-0.001,5.891 -4.776,10.667 -10.667,10.667Z" style="fill:#0100ff;fill-rule:nonzero;"/><path d="M277.347,74.68c-17.673,0 -32,14.327 -32,32c0,17.673 14.327,32 32,32c17.673,0 32,-14.327 32,-32c0,-17.673 -14.327,-32 -32,-32Zm0,42.667c-5.891,0 -10.667,-4.776 -10.667,-10.667c0,-5.891 4.776,-10.667 10.667,-10.667c5.891,0 10.667,4.776 10.667,10.667c0,5.891 -4.776,10.667 -10.667,10.667Z" style="fill:#0100ff;fill-rule:nonzero;"/><rect x="224.013" y="170.68" width="21.333" height="21.333" style="fill:#0100ff;"/><rect x="224.013" y="213.347" width="21.333" height="21.333" style="fill:#0100ff;"/><rect x="170.68" y="416.014" width="21.333" height="21.333" style="fill:#0100ff;"/></svg>