<?xml version="1.0" encoding="UTF-8" standalone="no"?><!DOCTYPE svg PUBLIC "-//W3C//DTD SVG 1.1//EN" "http://www.w3.org/Graphics/SVG/1.1/DTD/svg11.dtd"><svg width="100%" height="100%" viewBox="0 0 512 512" version="1.1" xmlns="http://www.w3.org/2000/svg" xmlns:xlink="http://www.w3.org/1999/xlink" xml:space="preserve" xmlns:serif="http://www.serif.com/" style="fill-rule:evenodd;clip-rule:evenodd;stroke-linejoin:round;stroke-miterlimit:1.41421;"><path d="M511.992,162.133c0,-39.715 -98.597,-62.856 -208.469,-68.02c-15.695,-0.734 -31.621,-1.113 -47.515,-1.113c-15.899,0 -31.824,0.367 -47.531,1.113c-109.872,5.172 -208.477,28.313 -208.477,68.02l0,1.441c0,141.153 114.844,255.996 256.004,255.996c141.152,0 255.996,-114.843 255.996,-255.996l0,-1.441c-0.008,0.008 -0.008,0.008 -0.008,0Zm-19.34,0.008c-0.011,20.308 -92.195,49.793 -236.656,49.793c-144.461,0 -236.637,-29.497 -236.656,-49.793c0.012,-20.309 92.207,-49.793 236.668,-49.793c144.461,0 236.633,29.488 236.644,49.793Zm-236.648,238.086c-121.09,0 -221.172,-91.43 -234.973,-208.864c41.571,26.293 138.699,39.899 234.973,39.899c96.277,0 193.391,-13.617 234.965,-39.899c-13.809,117.442 -113.883,208.864 -234.965,208.864Z" style="fill:#0100ff;fill-rule:nonzero;"/></svg>