<?xml version="1.0" encoding="UTF-8" standalone="no"?><!DOCTYPE svg PUBLIC "-//W3C//DTD SVG 1.1//EN" "http://www.w3.org/Graphics/SVG/1.1/DTD/svg11.dtd"><svg width="100%" height="100%" viewBox="0 0 60 60" version="1.1" xmlns="http://www.w3.org/2000/svg" xmlns:xlink="http://www.w3.org/1999/xlink" xml:space="preserve" xmlns:serif="http://www.serif.com/" style="fill-rule:evenodd;clip-rule:evenodd;stroke-linejoin:round;stroke-miterlimit:1.41421;"><g><path d="M29.988,38c3.86,0 7,-3.141 7,-7c0,-3.859 -3.14,-7 -7,-7c-3.86,0 -7,3.141 -7,7c0,3.859 3.14,7 7,7Zm0,-12c2.757,0 5,2.243 5,5c0,2.757 -2.243,5 -5,5c-2.757,0 -5,-2.243 -5,-5c0,-2.757 2.243,-5 5,-5Z" style="fill:#0100ff;fill-rule:nonzero;"/><circle cx="29.988" cy="31" r="1" style="fill:#0100ff;"/><path d="M0,0l0,60l60,0l0,-2.871l0,-8.258l0,-10.264l0,-38.607l-60,0Zm37.351,2c-0.383,0.056 -0.716,0.332 -0.822,0.729l-0.801,2.989c-1.543,-0.369 -3.123,-0.594 -4.728,-0.666l0,-3.052l6.351,0Zm-8.351,3.046c-1.614,0.062 -3.204,0.283 -4.756,0.653l-0.796,-2.97c-0.106,-0.396 -0.439,-0.672 -0.82,-0.729l6.372,0l0,3.046Zm-6.428,-3.046c-0.114,-0.01 -0.231,-0.009 -0.348,0.022c-0.534,0.143 -0.85,0.691 -0.707,1.225l0.802,2.994c-1.517,0.492 -2.985,1.118 -4.387,1.877l-1.577,-2.732c-0.276,-0.479 -0.889,-0.644 -1.366,-0.366c-0.479,0.276 -0.642,0.888 -0.366,1.366l1.589,2.751c-1.336,0.857 -2.599,1.825 -3.767,2.904l-2.254,-2.254c-0.391,-0.391 -1.023,-0.391 -1.414,0c-0.391,0.391 -0.391,1.023 0,1.414l2.253,2.253c-1.084,1.16 -2.074,2.409 -2.939,3.748l-2.715,-1.568c-0.481,-0.278 -1.092,-0.113 -1.369,0.366c-0.276,0.479 -0.112,1.09 0.366,1.366l2.7,1.559c-0.655,1.207 -1.209,2.471 -1.666,3.78c-0.057,0.081 -0.115,0.162 -0.147,0.261c-0.022,0.067 -0.016,0.134 -0.023,0.201c-0.247,0.755 -0.465,1.522 -0.639,2.305c-0.12,0.539 0.219,1.073 0.758,1.193c0.543,0.123 1.074,-0.218 1.194,-0.758c0.102,-0.458 0.237,-0.904 0.366,-1.352l13.252,4.306c0.103,0.033 0.207,0.049 0.309,0.049c0.422,0 0.814,-0.269 0.951,-0.691c0.17,-0.524 -0.117,-1.089 -0.642,-1.26l-13.233,-4.3c3.401,-8.845 12.01,-15.222 21.447,-15.613l0,13.954c0,0.553 0.448,1 1,1c0.552,0 1,-0.447 1,-1l0,-13.947c9.505,0.458 18.113,6.83 21.457,15.594l-13.268,4.312c-0.525,0.171 -0.813,0.735 -0.642,1.26c0.137,0.423 0.529,0.691 0.951,0.691c0.102,0 0.207,-0.016 0.309,-0.049l13.28,-4.315c0.131,0.461 0.265,0.921 0.367,1.393c0.101,0.469 0.515,0.79 0.977,0.79c0.069,0 0.14,-0.007 0.211,-0.022c0.54,-0.115 0.884,-0.647 0.768,-1.188c-0.181,-0.843 -0.418,-1.666 -0.684,-2.477c-0.006,-0.026 -0.001,-0.052 -0.009,-0.077c-0.012,-0.036 -0.038,-0.061 -0.053,-0.094c-0.463,-1.375 -1.042,-2.699 -1.729,-3.964l2.669,-1.541c0.479,-0.276 0.642,-0.888 0.366,-1.366c-0.276,-0.479 -0.887,-0.644 -1.366,-0.366l-2.688,1.552c-0.867,-1.337 -1.861,-2.586 -2.953,-3.745l2.239,-2.239c0.391,-0.391 0.391,-1.023 0,-1.414c-0.391,-0.391 -1.023,-0.391 -1.414,0l-2.246,2.246c-1.171,-1.073 -2.437,-2.037 -3.778,-2.891l1.591,-2.756c0.276,-0.479 0.112,-1.09 -0.366,-1.366c-0.479,-0.277 -1.09,-0.112 -1.366,0.366l-1.584,2.743c-1.401,-0.752 -2.868,-1.377 -4.386,-1.868l0.808,-3.013c0.143,-0.533 -0.173,-1.082 -0.707,-1.225c-0.122,-0.034 -0.244,-0.036 -0.362,-0.024l20.608,0l0,36.325c-1.308,-0.46 -2.288,-1.585 -2.508,-3.015l-0.509,-3.31l-6.184,0l-0.739,3.842c-0.248,1.286 -1.084,2.313 -2.294,2.813c-1.21,0.501 -2.527,0.367 -3.613,-0.367l-3.239,-2.193l-4.372,4.372l1.98,2.701c0.781,1.064 0.959,2.434 0.477,3.662c-0.482,1.229 -1.544,2.112 -2.841,2.361l-3.158,0.608l0,6.184l3.31,0.51c1.027,0.158 1.899,0.708 2.485,1.508l-13.59,0c0.586,-0.799 1.459,-1.349 2.486,-1.508l3.31,-0.51l0,-6.184l-3.157,-0.607c-1.297,-0.249 -2.359,-1.132 -2.841,-2.361c-0.482,-1.229 -0.304,-2.598 0.477,-3.662l1.981,-2.701l-4.373,-4.372l-3.239,2.193c-1.084,0.736 -2.401,0.87 -3.612,0.368c-1.211,-0.502 -2.047,-1.527 -2.295,-2.814l-0.741,-3.843l-6.184,0l-0.509,3.31c-0.22,1.431 -1.2,2.555 -2.508,3.015l0,-36.325l20.572,0Zm-19.46,56c-0.433,-0.422 -0.805,-0.891 -1.112,-1.398l0,-7.204c1.264,-2.102 3.541,-3.398 6,-3.398c3.86,0 7,3.141 7,7c0,1.882 -0.766,3.684 -2.113,5l-9.775,0Zm12.348,0c0.987,-1.469 1.54,-3.203 1.54,-5c0,-4.963 -4.038,-9 -9,-9c-2.252,0 -4.372,0.86 -6,2.322l0,-5.906c2.326,-0.516 4.112,-2.382 4.484,-4.802l0.249,-1.614l2.816,0l0.427,2.219c0.371,1.931 1.677,3.533 3.494,4.285c1.816,0.753 3.873,0.543 5.499,-0.56l1.872,-1.268l1.991,1.991l-0.965,1.316c-1.189,1.621 -1.46,3.706 -0.726,5.576c0.734,1.872 2.351,3.216 4.325,3.596l1.534,0.296l0,2.816l-1.614,0.248c-2.037,0.313 -3.694,1.622 -4.476,3.484l-5.45,0l0,0.001Zm19.154,-3.484l-1.614,-0.248l0,-2.816l1.535,-0.295c1.974,-0.38 3.591,-1.724 4.325,-3.596c0.734,-1.87 0.463,-3.955 -0.726,-5.575l-0.966,-1.317l1.991,-1.991l1.871,1.268c1.628,1.103 3.685,1.311 5.5,0.559c1.816,-0.752 3.122,-2.354 3.493,-4.284l0.428,-2.221l2.816,0l0.249,1.614c0.372,2.42 2.159,4.286 4.484,4.802l0,5.906c-1.628,-1.462 -3.748,-2.322 -6,-2.322c-4.962,0 -9,4.037 -9,9c0,1.797 0.552,3.531 1.539,5l-5.449,0c-0.782,-1.863 -2.439,-3.172 -4.476,-3.484Zm12.499,3.484c-1.347,-1.316 -2.113,-3.118 -2.113,-5c0,-3.859 3.14,-7 7,-7c2.459,0 4.735,1.296 6,3.397l0,7.205c-0.306,0.507 -0.678,0.976 -1.112,1.397l-9.775,0l0,0.001Z" style="fill:#0600ff;fill-rule:nonzero;"/></g></svg>